<svg width="23" height="19" viewBox="0 0 23 19" fill="none" xmlns="http://www.w3.org/2000/svg">
<g filter="url(#filter0_d)">
<path d="M11.5 0.8125C8.375 0.8125 5.70625 2.75625 4.625 5.5C5.70625 8.24375 8.375 10.1875 11.5 10.1875C14.625 10.1875 17.2937 8.24375 18.375 5.5C17.2937 2.75625 14.625 0.8125 11.5 0.8125ZM11.5 8.625C9.775 8.625 8.375 7.225 8.375 5.5C8.375 3.775 9.775 2.375 11.5 2.375C13.225 2.375 14.625 3.775 14.625 5.5C14.625 7.225 13.225 8.625 11.5 8.625ZM11.5 3.625C10.4625 3.625 9.625 4.4625 9.625 5.5C9.625 6.5375 10.4625 7.375 11.5 7.375C12.5375 7.375 13.375 6.5375 13.375 5.5C13.375 4.4625 12.5375 3.625 11.5 3.625Z" fill="#00579D"/>
</g>
<defs>
<filter id="filter0_d" x="0.625" y="0.8125" width="21.75" height="17.375" filterUnits="userSpaceOnUse" color-interpolation-filters="sRGB">
<feFlood flood-opacity="0" result="BackgroundImageFix"/>
<feColorMatrix in="SourceAlpha" type="matrix" values="0 0 0 0 0 0 0 0 0 0 0 0 0 0 0 0 0 0 127 0"/>
<feOffset dy="4"/>
<feGaussianBlur stdDeviation="2"/>
<feColorMatrix type="matrix" values="0 0 0 0 0 0 0 0 0 0 0 0 0 0 0 0 0 0 0.25 0"/>
<feBlend mode="normal" in2="BackgroundImageFix" result="effect1_dropShadow"/>
<feBlend mode="normal" in="SourceGraphic" in2="effect1_dropShadow" result="shape"/>
</filter>
</defs>
</svg>
