<svg width="36" height="40" viewBox="0 0 36 40" fill="none" xmlns="http://www.w3.org/2000/svg">
<path d="M11.5714 20.6274H9.64285V19.4623C10.2288 19.1229 10.7154 18.6351 11.0539 18.0476C11.3925 17.4601 11.5709 16.7937 11.5714 16.1152V12.8922C11.5714 12.8736 11.5706 12.8559 11.569 12.8374C11.5357 11.851 11.1365 10.9126 10.4496 10.2058C10.0971 9.8336 9.67288 9.53702 9.20272 9.33399C8.73255 9.13095 8.22619 9.02568 7.71428 9.02454C6.69164 9.02562 5.71119 9.43345 4.98807 10.1585C4.26495 10.8836 3.85822 11.8667 3.85714 12.8922V16.1152C3.85765 16.7937 4.03611 17.4601 4.37461 18.0476C4.71312 18.6351 5.19976 19.1229 5.78571 19.4623V20.6274H3.85714C2.8345 20.6285 1.85405 21.0363 1.13093 21.7614C0.407809 22.4865 0.00108483 23.4696 0 24.495L0 30.2964C0 30.4674 0.0677295 30.6313 0.188288 30.7522C0.308847 30.8731 0.47236 30.941 0.642857 30.941H14.7857C14.9562 30.941 15.1197 30.8731 15.2403 30.7522C15.3608 30.6313 15.4286 30.4674 15.4286 30.2964V24.495C15.4275 23.4696 15.0208 22.4865 14.2976 21.7614C13.5745 21.0363 12.5941 20.6285 11.5714 20.6274ZM5.14285 12.8922C5.14375 12.2086 5.41495 11.5533 5.89699 11.0699C6.37904 10.5866 7.03257 10.3146 7.71428 10.3137C8.7308 10.3137 9.6316 10.9616 10.0454 11.8721C8.45115 12.5844 7.14294 12.8204 6.29196 12.8889C5.90967 12.9211 5.52544 12.923 5.14285 12.8946V12.8922ZM5.14285 16.1152V14.1878C5.29392 14.1975 5.46348 14.2039 5.65312 14.2039C6.69294 14.2039 8.30008 14.0154 10.2857 13.1734V16.1152C10.2857 16.799 10.0148 17.4548 9.53255 17.9384C9.05032 18.4219 8.39627 18.6936 7.71428 18.6936C7.0323 18.6936 6.37824 18.4219 5.89601 17.9384C5.41377 17.4548 5.14285 16.799 5.14285 16.1152ZM8.35714 19.928V21.272C8.35714 21.4429 8.28941 21.6069 8.16885 21.7278C8.04829 21.8487 7.88478 21.9166 7.71428 21.9166C7.54378 21.9166 7.38027 21.8487 7.25971 21.7278C7.13915 21.6069 7.07142 21.4429 7.07142 21.272V19.928C7.4969 20.001 7.93166 20.001 8.35714 19.928ZM14.1428 29.6518H12.8571V25.1396C12.8571 24.9686 12.7894 24.8047 12.6688 24.6838C12.5483 24.5629 12.3848 24.495 12.2143 24.495C12.0438 24.495 11.8803 24.5629 11.7597 24.6838C11.6391 24.8047 11.5714 24.9686 11.5714 25.1396V29.6518H3.85714V25.1396C3.85714 24.9686 3.78941 24.8047 3.66885 24.6838C3.54829 24.5629 3.38478 24.495 3.21428 24.495C3.04379 24.495 2.88027 24.5629 2.75972 24.6838C2.63916 24.8047 2.57143 24.9686 2.57143 25.1396V29.6518H1.28571V24.495C1.28648 23.8114 1.55764 23.156 2.03971 22.6726C2.52178 22.1893 3.17539 21.9174 3.85714 21.9166H5.8966C6.02942 22.2936 6.27555 22.62 6.60109 22.8509C6.92662 23.0817 7.31555 23.2057 7.71428 23.2057C8.11301 23.2057 8.50194 23.0817 8.82747 22.8509C9.15301 22.62 9.39914 22.2936 9.53196 21.9166H11.5714C12.2531 21.9175 12.9067 22.1894 13.3887 22.6728C13.8707 23.1561 14.142 23.8114 14.1428 24.495V29.6518Z" fill="white"/>
<path d="M28.9287 7.73523H35.3573C35.5278 7.73523 35.6913 7.66732 35.8118 7.54643C35.9324 7.42555 36.0001 7.26159 36.0001 7.09063V0.644603C36.0001 0.473643 35.9324 0.309686 35.8118 0.1888C35.6913 0.0679133 35.5278 0 35.3573 0L28.9287 0C28.7582 0 28.5947 0.0679133 28.4741 0.1888C28.3536 0.309686 28.2858 0.473643 28.2858 0.644603V3.22301H23.7858C23.6154 3.22301 23.4518 3.29093 23.3313 3.41181C23.2107 3.5327 23.143 3.69666 23.143 3.86762V19.3381H16.0716C15.9011 19.3381 15.7376 19.406 15.617 19.5269C15.4964 19.6478 15.4287 19.8117 15.4287 19.9827C15.4287 20.1536 15.4964 20.3176 15.617 20.4385C15.7376 20.5594 15.9011 20.6273 16.0716 20.6273H23.143V36.0978C23.143 36.2687 23.2107 36.4327 23.3313 36.5536C23.4518 36.6744 23.6154 36.7424 23.7858 36.7424H28.2858V39.3208C28.2858 39.4917 28.3536 39.6557 28.4741 39.7766C28.5947 39.8975 28.7582 39.9654 28.9287 39.9654H35.3573C35.5278 39.9654 35.6913 39.8975 35.8118 39.7766C35.9324 39.6557 36.0001 39.4917 36.0001 39.3208V32.8747C36.0001 32.7038 35.9324 32.5398 35.8118 32.4189C35.6913 32.298 35.5278 32.2301 35.3573 32.2301H28.9287C28.7582 32.2301 28.5947 32.298 28.4741 32.4189C28.3536 32.5398 28.2858 32.7038 28.2858 32.8747V35.4531H24.4287V20.6273H28.2858V23.2057C28.2858 23.3767 28.3536 23.5406 28.4741 23.6615C28.5947 23.7824 28.7582 23.8503 28.9287 23.8503H35.3573C35.5278 23.8503 35.6913 23.7824 35.8118 23.6615C35.9324 23.5406 36.0001 23.3767 36.0001 23.2057V16.7597C36.0001 16.5887 35.9324 16.4248 35.8118 16.3039C35.6913 16.183 35.5278 16.1151 35.3573 16.1151H28.9287C28.7582 16.1151 28.5947 16.183 28.4741 16.3039C28.3536 16.4248 28.2858 16.5887 28.2858 16.7597V19.3381H24.4287V4.51222H28.2858V7.09063C28.2858 7.26159 28.3536 7.42555 28.4741 7.54643C28.5947 7.66732 28.7582 7.73523 28.9287 7.73523ZM29.5716 33.5193H34.7144V38.6762H29.5716V33.5193ZM29.5716 17.4043H34.7144V22.5611H29.5716V17.4043ZM29.5716 1.28921H34.7144V6.44603H29.5716V1.28921Z" fill="white"/>
</svg>
