<svg width="36" height="26" viewBox="0 0 36 26" fill="none" xmlns="http://www.w3.org/2000/svg">
<path d="M34.8387 0L1.16129 0C0.519972 0 0 0.516207 0 1.15288L0 24.787C0 25.4236 0.519972 25.9398 1.16129 25.9398H34.8387C35.48 25.9398 36 25.4236 36 24.787V1.15288C36 0.516207 35.48 0 34.8387 0ZM34.8387 1.15288V5.76441H1.16129V1.15288H34.8387ZM1.16129 24.787V6.91729H34.8387V24.787H1.16129Z" fill="white"/>
<path d="M3.48412 5.18801C4.4461 5.18801 5.22606 4.4137 5.22606 3.45869C5.22606 2.50368 4.4461 1.72937 3.48412 1.72937C2.52215 1.72937 1.74219 2.50368 1.74219 3.45869C1.74219 4.4137 2.52215 5.18801 3.48412 5.18801ZM3.48412 2.88225C3.80478 2.88225 4.06477 3.14035 4.06477 3.45869C4.06477 3.77703 3.80478 4.03513 3.48412 4.03513C3.16346 4.03513 2.90348 3.77703 2.90348 3.45869C2.90348 3.14035 3.16346 2.88225 3.48412 2.88225Z" fill="white"/>
<path d="M7.54858 5.18801C8.51056 5.18801 9.29051 4.4137 9.29051 3.45869C9.29051 2.50368 8.51056 1.72937 7.54858 1.72937C6.5866 1.72937 5.80664 2.50368 5.80664 3.45869C5.80664 4.4137 6.5866 5.18801 7.54858 5.18801ZM7.54858 2.88225C7.86924 2.88225 8.12922 3.14035 8.12922 3.45869C8.12922 3.77703 7.86924 4.03513 7.54858 4.03513C7.22792 4.03513 6.96793 3.77703 6.96793 3.45869C6.96793 3.14035 7.22792 2.88225 7.54858 2.88225Z" fill="white"/>
<path d="M11.6125 5.18801C12.5745 5.18801 13.3545 4.4137 13.3545 3.45869C13.3545 2.50368 12.5745 1.72937 11.6125 1.72937C10.6506 1.72937 9.87061 2.50368 9.87061 3.45869C9.87061 4.4137 10.6506 5.18801 11.6125 5.18801ZM11.6125 2.88225C11.9332 2.88225 12.1932 3.14035 12.1932 3.45869C12.1932 3.77703 11.9332 4.03513 11.6125 4.03513C11.2919 4.03513 11.0319 3.77703 11.0319 3.45869C11.0319 3.14035 11.2919 2.88225 11.6125 2.88225Z" fill="white"/>
<path d="M32.5162 3.45855H33.0968C33.4175 3.45855 33.6775 3.20044 33.6775 2.88211C33.6775 2.56377 33.4175 2.30566 33.0968 2.30566H32.5162C32.1955 2.30566 31.9355 2.56377 31.9355 2.88211C31.9355 3.20044 32.1955 3.45855 32.5162 3.45855Z" fill="white"/>
<path d="M26.71 3.45855H30.7746C31.0952 3.45855 31.3552 3.20044 31.3552 2.88211C31.3552 2.56377 31.0952 2.30566 30.7746 2.30566H26.71C26.3894 2.30566 26.1294 2.56377 26.1294 2.88211C26.1294 3.20044 26.3894 3.45855 26.71 3.45855Z" fill="white"/>
<path d="M28.5589 15.2313C28.3673 14.9628 23.8063 8.64673 17.9999 8.64673C12.1934 8.64673 7.63245 14.9628 7.44079 15.2313C7.29903 15.4309 7.29903 15.6972 7.44079 15.8967C7.63245 16.1652 12.1962 22.4813 17.9999 22.4813C23.8035 22.4813 28.3673 16.1652 28.5589 15.8967C28.7007 15.6972 28.7007 15.4309 28.5589 15.2313ZM17.9999 21.3284C13.5149 21.3284 9.64912 16.8374 8.64263 15.564C9.64798 14.2895 13.5075 9.79961 17.9999 9.79961C22.4922 9.79961 26.3506 14.2907 27.3571 15.564C26.3517 16.8385 22.4922 21.3284 17.9999 21.3284Z" fill="white"/>
<path d="M18.0001 11.5289C15.7552 11.5289 13.9355 13.3354 13.9355 15.564C13.9355 17.7927 15.7552 19.5991 18.0001 19.5991C20.245 19.5991 22.0646 17.7927 22.0646 15.564C22.062 13.3365 20.2438 11.5315 18.0001 11.5289ZM18.0001 18.4462C16.3968 18.4462 15.0968 17.1557 15.0968 15.564C15.0968 13.9723 16.3968 12.6818 18.0001 12.6818C19.6034 12.6818 20.9033 13.9723 20.9033 15.564C20.9013 17.1551 19.6028 18.4442 18.0001 18.4462Z" fill="white"/>
</svg>
