<svg width="40" height="38" viewBox="0 0 40 38" fill="none" xmlns="http://www.w3.org/2000/svg">
<path d="M38.8281 8.45312H29.9219V1.5C29.9219 0.852812 29.3972 0.328125 28.75 0.328125H1.17188C0.524687 0.328125 0 0.852812 0 1.5V31.8125C0 35.0434 2.62852 37.6719 5.85938 37.6719H34.1406C37.3715 37.6719 40 35.0434 40 31.8125V9.625C40 8.97781 39.4753 8.45312 38.8281 8.45312ZM5.85938 35.3281C3.92086 35.3281 2.34375 33.751 2.34375 31.8125V2.67188H27.5781C27.5781 33.6458 27.5634 31.9237 27.605 32.3654C27.7069 33.4518 28.112 34.4762 28.7527 35.3281H5.85938ZM37.6562 31.8125C37.6562 33.751 36.0791 35.3281 34.1406 35.3281C33.8777 35.3281 33.6957 35.3281 33.4375 35.3281C31.499 35.3281 29.9219 33.751 29.9219 31.8125V10.7969H37.6562V31.8125Z" fill="#00579D"/>
<path d="M23.75 5.95312H6.25C5.60281 5.95312 5.07812 6.47781 5.07812 7.125C5.07812 7.77219 5.60281 8.29688 6.25 8.29688H23.75C24.3972 8.29688 24.9219 7.77219 24.9219 7.125C24.9219 6.47781 24.3972 5.95312 23.75 5.95312Z" fill="#00579D"/>
<path d="M23.75 10.9531H6.25C5.60281 10.9531 5.07812 11.4778 5.07812 12.125C5.07812 12.7722 5.60281 13.2969 6.25 13.2969H23.75C24.3972 13.2969 24.9219 12.7722 24.9219 12.125C24.9219 11.4778 24.3972 10.9531 23.75 10.9531Z" fill="#00579D"/>
<path d="M23.75 29.7031H6.25C5.60281 29.7031 5.07812 30.2278 5.07812 30.875C5.07812 31.5222 5.60281 32.0469 6.25 32.0469H23.75C24.3972 32.0469 24.9219 31.5222 24.9219 30.875C24.9219 30.2278 24.3972 29.7031 23.75 29.7031Z" fill="#00579D"/>
<path d="M23.75 15.9531H15C14.3528 15.9531 13.8281 16.4778 13.8281 17.125V25.875C13.8281 26.5222 14.3528 27.0469 15 27.0469H23.75C24.3972 27.0469 24.9219 26.5222 24.9219 25.875V17.125C24.9219 16.4778 24.3972 15.9531 23.75 15.9531ZM22.5781 24.7031H16.1719V18.2969H22.5781V24.7031Z" fill="#00579D"/>
<path d="M6.25 20.1719H10C10.6472 20.1719 11.1719 19.6472 11.1719 19C11.1719 18.3528 10.6472 17.8281 10 17.8281H6.25C5.60281 17.8281 5.07812 18.3528 5.07812 19C5.07812 19.6472 5.60281 20.1719 6.25 20.1719Z" fill="#00579D"/>
<path d="M6.25 25.1719H10C10.6472 25.1719 11.1719 24.6472 11.1719 24C11.1719 23.3528 10.6472 22.8281 10 22.8281H6.25C5.60281 22.8281 5.07812 23.3528 5.07812 24C5.07812 24.6472 5.60281 25.1719 6.25 25.1719Z" fill="#00579D"/>
</svg>
