<svg width="42" height="51" viewBox="0 0 42 51" fill="none" xmlns="http://www.w3.org/2000/svg">
<path d="M9.68884 21.6604C11.3115 26.9811 15.4813 32.5094 21.1039 32.5094C26.7266 32.5094 30.9058 26.9811 32.519 21.6604C33.9058 21.1792 35.0662 19.7925 35.5191 18C36.1418 15.5377 35.2266 13.2547 33.4531 12.566C33.6135 11.9151 33.6984 11.2453 33.6984 10.5566C33.6982 4.71698 27.8775 0 20.6982 0C13.5189 0 7.67931 4.72642 7.67931 10.5566C7.67931 11.3868 7.81138 12.1981 8.02836 12.9717C6.74534 13.9434 6.16044 15.9057 6.68874 18.0094C7.14167 19.7925 8.30195 21.1792 9.68884 21.6604ZM8.82082 14.8774C9.0095 14.566 9.25478 14.3585 9.5661 14.2736C9.6227 14.2642 9.69817 14.2547 9.76421 14.2547C9.82082 14.2547 9.86799 14.2547 9.92459 14.2642L10.8208 14.3491L10.9529 13.4623C11.2265 11.6132 11.8019 9.95283 12.6133 8.53774C14.1321 10.2453 17.151 11.4057 20.6321 11.4057C24.5661 11.4057 27.9152 9.92453 29.151 7.84906C30.1887 9.40566 30.9246 11.3019 31.2453 13.4623L31.3773 14.3491L32.2736 14.2642C32.4056 14.2547 32.5283 14.2547 32.632 14.2736C32.6981 14.283 32.7359 14.3302 32.8019 14.3491C33.6133 14.7075 34.0283 16.1321 33.6793 17.5472C33.3207 18.9906 32.3773 19.8396 31.6321 19.934L31.0094 20.0189L30.8396 20.6226C29.4812 25.5849 25.7076 30.6226 21.0849 30.6226C16.4622 30.6226 12.6886 25.5943 11.349 20.6226L11.1792 20.0189L10.5566 19.934C9.81129 19.8396 8.86789 18.9717 8.5094 17.5472C8.27374 16.5283 8.41525 15.5 8.82082 14.8774Z" fill="#00579D"/>
<path d="M32.1888 29.0914C30.9813 31.148 29.5851 32.8933 27.7266 33.8272C23.9058 35.78 21.0662 37.3649 21.0662 37.3649L21.0568 37.3555V37.3083L21.0096 37.3272L20.9624 37.3083V37.3555L20.953 37.3649C20.953 37.3649 18.1134 35.7895 14.2926 33.8272C12.4435 32.8744 11.0473 31.1385 9.83034 29.0914C4.17949 31.3839 0.226562 36.6763 0.226562 41.2801C0.226562 46.1386 0.226562 50.8461 0.226562 50.8461H20.953H21.0285H41.7737C41.7737 50.8461 41.7737 46.1386 41.7737 41.2801C41.7927 36.6763 37.8399 31.3933 32.1888 29.0914Z" fill="#00579D"/>
</svg>
