<svg width="25" height="25" viewBox="0 0 25 25" fill="none" xmlns="http://www.w3.org/2000/svg">
<g clip-path="url(#clip0)">
<path d="M13.6063 9.0575C13.283 9.0575 13.0209 9.31959 13.0209 9.64297V20.7085C13.0209 21.0317 13.283 21.294 13.6063 21.294C13.9297 21.294 14.1918 21.0317 14.1918 20.7085V9.64297C14.1918 9.31959 13.9297 9.0575 13.6063 9.0575Z" fill="#00579D"/>
<path d="M6.69791 9.0575C6.37452 9.0575 6.11243 9.31959 6.11243 9.64297V20.7085C6.11243 21.0317 6.37452 21.294 6.69791 21.294C7.02129 21.294 7.28339 21.0317 7.28339 20.7085V9.64297C7.28339 9.31959 7.02129 9.0575 6.69791 9.0575Z" fill="#00579D"/>
<path d="M1.66273 7.44262V21.8676C1.66273 22.7202 1.97537 23.5209 2.52151 24.0954C3.06514 24.6715 3.82168 24.9985 4.61345 24.9999H15.6909C16.4829 24.9985 17.2394 24.6715 17.7828 24.0954C18.329 23.5209 18.6416 22.7202 18.6416 21.8676V7.44262C19.7273 7.15445 20.4307 6.10562 20.2855 4.99161C20.1401 3.87783 19.1912 3.04467 18.0678 3.04444H15.0702V2.31259C15.0736 1.69716 14.8303 1.10619 14.3946 0.671425C13.9589 0.236891 13.367 -0.0050766 12.7516 -4.51433e-05H7.55273C6.9373 -0.0050766 6.34542 0.236891 5.90974 0.671425C5.47406 1.10619 5.23072 1.69716 5.23415 2.31259V3.04444H2.23655C1.11316 3.04467 0.164273 3.87783 0.0188185 4.99161C-0.126408 6.10562 0.577081 7.15445 1.66273 7.44262ZM15.6909 23.8289H4.61345C3.61242 23.8289 2.83369 22.969 2.83369 21.8676V7.49408H17.4706V21.8676C17.4706 22.969 16.6919 23.8289 15.6909 23.8289ZM6.40511 2.31259C6.40122 2.00773 6.52106 1.71431 6.73741 1.4991C6.95354 1.28389 7.24765 1.16565 7.55273 1.17091H12.7516C13.0567 1.16565 13.3508 1.28389 13.5669 1.4991C13.7833 1.71408 13.9031 2.00773 13.8992 2.31259V3.04444H6.40511V2.31259ZM2.23655 4.2154H18.0678C18.6498 4.2154 19.1217 4.68721 19.1217 5.26926C19.1217 5.85131 18.6498 6.32312 18.0678 6.32312H2.23655C1.6545 6.32312 1.18269 5.85131 1.18269 5.26926C1.18269 4.68721 1.6545 4.2154 2.23655 4.2154Z" fill="#00579D"/>
<path d="M10.1521 9.0575C9.82874 9.0575 9.56665 9.31959 9.56665 9.64297V20.7085C9.56665 21.0317 9.82874 21.294 10.1521 21.294C10.4755 21.294 10.7376 21.0317 10.7376 20.7085V9.64297C10.7376 9.31959 10.4755 9.0575 10.1521 9.0575Z" fill="#00579D"/>
</g>
<defs>
<clipPath id="clip0">
<rect width="25" height="25" fill="white"/>
</clipPath>
</defs>
</svg>
