<svg width="36" height="36" viewBox="0 0 36 36" fill="none" xmlns="http://www.w3.org/2000/svg">
<path d="M27.1696 0L4.68442 0C3.64748 0 2.80398 0.782715 2.80398 1.74485V2.40909H1.88044C0.843573 2.40909 0 3.1918 0 4.15394L0 26.4559C0 26.7434 0.251194 26.9764 0.561035 26.9764C0.870876 26.9764 1.12207 26.7434 1.12207 26.4559V4.15394C1.12207 3.76588 1.46228 3.45021 1.88044 3.45021H24.3656C24.7838 3.45021 25.124 3.76588 25.124 4.15394V33.7922C25.124 34.1802 24.7838 34.4959 24.3656 34.4959H1.88044C1.46228 34.4959 1.12207 34.1802 1.12207 33.7922V28.8852C1.12207 28.5977 0.870876 28.3647 0.561035 28.3647C0.251194 28.3647 0 28.5977 0 28.8852L0 33.7922C0 34.7542 0.843573 35.537 1.88044 35.537H24.3656C25.4025 35.537 26.2461 34.7543 26.2461 33.7922V33.1279H27.1695C28.2064 33.1279 29.05 32.3452 29.05 31.3831V8.36292C29.05 8.07536 28.7988 7.84235 28.4889 7.84235C28.1791 7.84235 27.9279 8.07536 27.9279 8.36292V31.383C27.9279 31.7711 27.5877 32.0868 27.1695 32.0868H26.4536V4.15394C26.4536 3.19187 25.61 2.40909 24.5731 2.40909C24.2642 2.40909 4.06825 2.40909 3.92598 2.40909V1.74485C3.92605 1.35679 4.26619 1.04112 4.68442 1.04112H27.1696C27.5878 1.04112 27.928 1.35679 27.928 1.74485V5.9337C27.928 6.22126 28.1792 6.45426 28.489 6.45426C28.7988 6.45426 29.05 6.22126 29.05 5.9337V1.74485C29.05 0.782715 28.2065 0 27.1696 0V0Z" fill="white"/>
<path d="M34.7346 10.3276H31.7414C31.0437 10.3276 30.4761 10.8543 30.4761 11.5017V26.2789C30.4761 26.2889 30.4771 26.2987 30.4777 26.3086C30.478 26.3141 30.4781 26.3195 30.4786 26.3249C30.4826 26.3665 30.4919 26.4067 30.5058 26.4449C30.5073 26.4489 30.509 26.4529 30.5106 26.457C30.5168 26.4729 30.5239 26.4886 30.5318 26.5038C30.5331 26.5063 30.5339 26.5089 30.5352 26.5113L32.3762 29.9336C32.5556 30.2671 32.8778 30.4662 33.2381 30.4662C33.5984 30.4662 33.9206 30.2671 34.0999 29.9336L35.9409 26.5113C35.9425 26.5083 35.9435 26.5051 35.945 26.5022C35.9523 26.4881 35.9588 26.4736 35.9647 26.4588C35.9667 26.4538 35.9688 26.4489 35.9706 26.4438C35.9771 26.4259 35.9827 26.4077 35.987 26.389C35.9873 26.3877 35.9878 26.3865 35.9881 26.3851C35.9925 26.3658 35.9954 26.3461 35.9973 26.326C35.998 26.3192 35.9981 26.3124 35.9985 26.3056C35.999 26.2967 35.9999 26.2879 35.9999 26.2789C35.9999 25.7389 35.9999 12.2392 35.9999 11.5017C35.9999 10.8543 35.4323 10.3276 34.7346 10.3276ZM33.238 29.2046L31.9443 26.7995H34.5318L33.238 29.2046ZM34.8778 25.7583H31.5982V14.6265H34.8778V25.7583ZM34.8778 13.5854H31.5982V11.5017C31.5982 11.4284 31.6625 11.3688 31.7415 11.3688H34.7346C34.8136 11.3688 34.8779 11.4284 34.8779 11.5017V13.5854H34.8778Z" fill="white"/>
<path d="M3.20557 31.6683C3.20557 32.2615 3.72568 32.7441 4.36504 32.7441H7.45694C8.0963 32.7441 8.61642 32.2615 8.61642 31.6683V28.9269L9.8964 27.6635C10.1086 27.454 10.0976 27.1245 9.87186 26.9276C9.6461 26.7307 9.29108 26.7409 9.07878 26.9504L8.1073 27.9093C7.92171 27.7922 7.69781 27.7236 7.45694 27.7236H4.36504C3.72568 27.7236 3.20557 28.2062 3.20557 28.7994V31.6683ZM7.49435 30.0345V31.6683C7.49435 31.6874 7.47759 31.703 7.45694 31.703H5.79426C5.81633 31.6869 5.83765 31.6697 5.85717 31.6505L7.49435 30.0345ZM4.32764 28.7994C4.32764 28.7803 4.34439 28.7647 4.36504 28.7647H7.24076L5.52698 30.4563L4.52153 29.0347C4.47059 28.9626 4.40341 28.9065 4.32771 28.867V28.7994H4.32764ZM4.32764 30.6583C5.03806 31.6628 5.0038 31.6314 5.10194 31.703H4.36504C4.34439 31.703 4.32764 31.6874 4.32764 31.6683V30.6583Z" fill="white"/>
<path d="M22.4613 29.7131H10.5425C10.2326 29.7131 9.98145 29.9461 9.98145 30.2337C9.98145 30.5213 10.2326 30.7543 10.5425 30.7543H22.4613C22.7712 30.7543 23.0224 30.5213 23.0224 30.2337C23.0224 29.9461 22.7712 29.7131 22.4613 29.7131Z" fill="white"/>
<path d="M4.51465 16.8597H14.4606C15.1824 16.8597 15.7697 16.3148 15.7697 15.645V6.41655C15.7697 5.74683 15.1824 5.2019 14.4606 5.2019H4.51465C3.79286 5.2019 3.20557 5.74683 3.20557 6.41655V15.645C3.20557 16.3148 3.79286 16.8597 4.51465 16.8597ZM4.32764 6.41655C4.32764 6.32083 4.41157 6.24303 4.51465 6.24303H14.4606C14.5637 6.24303 14.6476 6.32083 14.6476 6.41655V15.645C14.6476 15.7408 14.5637 15.8186 14.4606 15.8186H4.51465C4.41157 15.8186 4.32764 15.7408 4.32764 15.645V6.41655Z" fill="white"/>
<path d="M7.30394 14.9846C7.61363 14.9846 7.86572 14.7514 7.86572 14.4647V13.3403C7.86722 12.5137 8.59125 11.8392 9.4812 11.8343C9.48352 11.8343 9.48577 11.8344 9.48809 11.8344C9.49048 11.8344 9.4928 11.8343 9.49512 11.8343C10.3851 11.8391 11.1093 12.5136 11.1107 13.3403V13.9441H9.9221C9.61316 13.9441 9.36107 14.1773 9.36107 14.4646C9.36107 14.7513 9.61316 14.9852 9.9221 14.9852C9.92285 14.9852 9.9236 14.9852 9.9236 14.9845H11.6718C11.8191 14.9845 11.9643 14.929 12.0682 14.8326C12.173 14.7354 12.2328 14.6014 12.2328 14.4646V13.3403C12.2328 12.6593 11.9471 12.0201 11.4287 11.5392C11.3309 11.4484 11.2271 11.3654 11.118 11.2905C11.6878 10.8538 12.0516 10.1936 12.0516 9.45601C12.0516 8.14447 10.9016 7.07739 9.48809 7.07739C8.07458 7.07739 6.9246 8.1444 6.9246 9.45601C6.9246 10.1935 7.2883 10.8537 7.85802 11.2904C7.74888 11.3654 7.6449 11.4484 7.54705 11.5392C7.02866 12.0202 6.74365 12.6595 6.74365 13.3404V14.4647C6.74365 14.6015 6.8035 14.7354 6.90747 14.8326C7.0122 14.929 7.15657 14.9846 7.30394 14.9846ZM9.48809 8.11851C10.2829 8.11851 10.9295 8.71855 10.9295 9.45601C10.9295 10.1919 10.2855 10.7907 9.49295 10.7932C9.49138 10.7932 9.48981 10.7931 9.48823 10.7931C9.48659 10.7931 9.48494 10.7932 9.4833 10.7932C8.69074 10.7908 8.04667 10.192 8.04667 9.45608C8.04667 8.71848 8.69329 8.11851 9.48809 8.11851Z" fill="white"/>
<path d="M17.502 8.78478H22.4606C22.7704 8.78478 23.0216 8.55177 23.0216 8.26421C23.0216 7.97666 22.7704 7.74365 22.4606 7.74365H17.502C17.1921 7.74365 16.9409 7.97666 16.9409 8.26421C16.9409 8.55177 17.1921 8.78478 17.502 8.78478Z" fill="white"/>
<path d="M17.502 11.7357H22.4606C22.7704 11.7357 23.0216 11.5027 23.0216 11.2151C23.0216 10.9276 22.7704 10.6946 22.4606 10.6946H17.502C17.1921 10.6946 16.9409 10.9276 16.9409 11.2151C16.9409 11.5027 17.1921 11.7357 17.502 11.7357Z" fill="white"/>
<path d="M17.502 14.8841H22.4606C22.7704 14.8841 23.0216 14.6511 23.0216 14.3636C23.0216 14.076 22.7704 13.843 22.4606 13.843H17.502C17.1921 13.843 16.9409 14.076 16.9409 14.3636C16.9409 14.6511 17.1921 14.8841 17.502 14.8841Z" fill="white"/>
<path d="M3.7666 19.9108H22.4608C22.7707 19.9108 23.0219 19.6777 23.0219 19.3902C23.0219 19.1026 22.7707 18.8696 22.4608 18.8696H3.7666C3.45676 18.8696 3.20557 19.1026 3.20557 19.3902C3.20557 19.6777 3.45676 19.9108 3.7666 19.9108Z" fill="white"/>
<path d="M3.7666 22.8617H22.4608C22.7707 22.8617 23.0219 22.6287 23.0219 22.3411C23.0219 22.0536 22.7707 21.8206 22.4608 21.8206H3.7666C3.45676 21.8206 3.20557 22.0536 3.20557 22.3411C3.20557 22.6287 3.45676 22.8617 3.7666 22.8617Z" fill="white"/>
<path d="M3.7666 25.8133H22.4608C22.7707 25.8133 23.0219 25.5803 23.0219 25.2928C23.0219 25.0052 22.7707 24.7722 22.4608 24.7722H3.7666C3.45676 24.7722 3.20557 25.0052 3.20557 25.2928C3.20557 25.5803 3.45676 25.8133 3.7666 25.8133Z" fill="white"/>
</svg>
