<svg width="36" height="38" viewBox="0 0 36 38" fill="none" xmlns="http://www.w3.org/2000/svg">
<path d="M32.7857 3.73323H27.2661L23.5974 0.182306C23.4768 0.0656119 23.3133 3.52401e-05 23.1429 0L9.64286 0C9.30186 0 8.97484 0.131107 8.73372 0.364479C8.4926 0.597851 8.35714 0.914372 8.35714 1.24441V3.73323H3.21429C2.36212 3.73422 1.54514 4.0623 0.94257 4.64552C0.339996 5.22873 0.00102077 6.01946 0 6.84425L0 26.7548C0.00102077 27.5796 0.339996 28.3703 0.94257 28.9535C1.54514 29.5368 2.36212 29.8648 3.21429 29.8658H12.7716L12.2895 33.5991H11.5714C11.2304 33.5991 10.9034 33.7302 10.6623 33.9635C10.4212 34.1969 10.2857 34.5134 10.2857 34.8435V36.0879H9V37.3323H27V36.0879H25.7143V34.8435C25.7143 34.5134 25.5788 34.1969 25.3377 33.9635C25.0966 33.7302 24.7696 33.5991 24.4286 33.5991H23.7105L23.2284 29.8658H32.7857C33.6379 29.8648 34.4549 29.5368 35.0574 28.9535C35.66 28.3703 35.999 27.5796 36 26.7548V6.84425C35.999 6.01946 35.66 5.22873 35.0574 4.64552C34.4549 4.0623 33.6379 3.73422 32.7857 3.73323ZM23.7857 2.12421L25.4481 3.73323H23.7857V2.12421ZM9.64286 1.24441H22.5V3.73323C22.5 4.06327 22.6355 4.37979 22.8766 4.61316C23.1177 4.84653 23.4447 4.97764 23.7857 4.97764H26.3571V21.155H9.64286V1.24441ZM3.21429 4.97764H8.35714V21.155C8.35714 21.485 8.4926 21.8015 8.73372 22.0349C8.97484 22.2683 9.30186 22.3994 9.64286 22.3994H26.3571C26.6981 22.3994 27.0252 22.2683 27.2663 22.0349C27.5074 21.8015 27.6429 21.485 27.6429 21.155V4.97764H32.7857C33.2972 4.97764 33.7877 5.1743 34.1494 5.52436C34.5111 5.87442 34.7143 6.3492 34.7143 6.84425V23.6438H1.28571V6.84425C1.28571 6.3492 1.4889 5.87442 1.85058 5.52436C2.21226 5.1743 2.7028 4.97764 3.21429 4.97764ZM24.4286 36.0879H11.5714V34.8435H24.4286V36.0879ZM22.4145 33.5991H13.5855L14.0676 29.8658H21.9324L22.4145 33.5991ZM32.7857 28.6214H3.21429C2.7028 28.6214 2.21226 28.4248 1.85058 28.0747C1.4889 27.7246 1.28571 27.2499 1.28571 26.7548V24.8882H34.7143V26.7548C34.7143 27.2499 34.5111 27.7246 34.1494 28.0747C33.7877 28.4248 33.2972 28.6214 32.7857 28.6214Z" fill="white"/>
<path d="M32.7857 26.1326H31.5V27.377H32.7857V26.1326Z" fill="white"/>
<path d="M17.9999 4.97778C16.7284 4.97778 15.4855 5.3427 14.4283 6.02639C13.3712 6.71008 12.5472 7.68183 12.0606 8.81876C11.5741 9.95569 11.4468 11.2067 11.6948 12.4137C11.9429 13.6207 12.5551 14.7293 13.4542 15.5995C14.3532 16.4697 15.4987 17.0622 16.7457 17.3023C17.9927 17.5424 19.2853 17.4192 20.46 16.9483C21.6346 16.4773 22.6386 15.6798 23.345 14.6566C24.0514 13.6334 24.4284 12.4304 24.4284 11.1998C24.4266 9.5502 23.7487 7.96865 22.5435 6.80218C21.3383 5.63571 19.7042 4.97959 17.9999 4.97778ZM17.9999 16.1775C16.9827 16.1775 15.9884 15.8855 15.1426 15.3386C14.2969 14.7916 13.6377 14.0142 13.2485 13.1047C12.8592 12.1951 12.7574 11.1943 12.9558 10.2287C13.1543 9.26318 13.6441 8.37625 14.3633 7.68011C15.0826 6.98397 15.9989 6.5099 16.9965 6.31784C17.9942 6.12577 19.0282 6.22435 19.9679 6.60109C20.9077 6.97784 21.7109 7.61584 22.276 8.4344C22.8411 9.25297 23.1427 10.2153 23.1427 11.1998C23.1412 12.5195 22.5989 13.7848 21.6347 14.7179C20.6706 15.6511 19.3634 16.176 17.9999 16.1775Z" fill="white"/>
<path d="M19.9288 9.33317V8.08876C19.9288 7.92374 19.8611 7.76548 19.7405 7.64879C19.6199 7.53211 19.4564 7.46655 19.2859 7.46655H16.7145C16.544 7.46655 16.3805 7.53211 16.2599 7.64879C16.1394 7.76548 16.0716 7.92374 16.0716 8.08876V9.33317H14.7859C14.6154 9.33317 14.4519 9.39872 14.3314 9.51541C14.2108 9.63209 14.1431 9.79035 14.1431 9.95537V12.4442C14.1431 12.6092 14.2108 12.7675 14.3314 12.8842C14.4519 13.0008 14.6154 13.0664 14.7859 13.0664H16.0716V14.3108C16.0716 14.4758 16.1394 14.6341 16.2599 14.7508C16.3805 14.8675 16.544 14.933 16.7145 14.933H19.2859C19.4564 14.933 19.6199 14.8675 19.7405 14.7508C19.8611 14.6341 19.9288 14.4758 19.9288 14.3108V13.0664H21.2145C21.385 13.0664 21.5485 13.0008 21.6691 12.8842C21.7896 12.7675 21.8574 12.6092 21.8574 12.4442V9.95537C21.8574 9.79035 21.7896 9.63209 21.6691 9.51541C21.5485 9.39872 21.385 9.33317 21.2145 9.33317H19.9288ZM20.5716 11.822H19.2859C19.1154 11.822 18.9519 11.8875 18.8314 12.0042C18.7108 12.1209 18.6431 12.2792 18.6431 12.4442V13.6886H17.3574V12.4442C17.3574 12.2792 17.2896 12.1209 17.1691 12.0042C17.0485 11.8875 16.885 11.822 16.7145 11.822H15.4288V10.5776H16.7145C16.885 10.5776 17.0485 10.512 17.1691 10.3953C17.2896 10.2787 17.3574 10.1204 17.3574 9.95537V8.71096H18.6431V9.95537C18.6431 10.1204 18.7108 10.2787 18.8314 10.3953C18.9519 10.512 19.1154 10.5776 19.2859 10.5776H20.5716V11.822Z" fill="white"/>
</svg>
