<svg width="36" height="36" viewBox="0 0 36 36" fill="none" xmlns="http://www.w3.org/2000/svg">
<path d="M35.2969 5.97635H17.0156V5.02727C17.0156 4.77183 16.877 4.53649 16.6537 4.41253L14.516 3.22608C14.1766 3.03757 13.7485 3.16005 13.56 3.49966C13.3715 3.8392 13.4941 4.2672 13.8336 4.45563L14.8627 5.02678L8.50781 8.54768L2.15395 5.02727L8.50823 1.50673L9.50161 2.05587C9.84143 2.24374 10.2693 2.12048 10.4572 1.78066C10.645 1.44084 10.5218 1.01299 10.182 0.825117L8.84798 0.0876798C8.63606 -0.0293202 8.37893 -0.0292499 8.16701 0.0880313L0.36232 4.41225C0.138797 4.53607 0 4.77169 0 5.02727L0 13.6757C0 13.9314 0.138797 14.1668 0.36232 14.2907L8.16701 18.615C8.27304 18.6737 8.39039 18.7031 8.50781 18.7031C8.62523 18.7031 8.74259 18.6737 8.84862 18.615L16.6533 14.2908C16.8769 14.1669 17.0156 13.9314 17.0156 13.6758V7.38267H34.5938V23.9061H5.20312V18.9841C5.20312 18.5958 4.88827 18.281 4.5 18.281C4.11173 18.281 3.79688 18.5958 3.79688 18.9841V28.6875C3.79688 29.0758 4.11173 29.3906 4.5 29.3906H16.3803V31.781H13.6363C13.2481 31.781 12.9332 32.0958 12.9332 32.4841V35.2969C12.9332 35.6851 13.2481 36 13.6363 36H26.1555C26.5437 36 26.8586 35.6851 26.8586 35.2969V32.4841C26.8586 32.0958 26.5437 31.781 26.1555 31.781H23.4116V29.3906H35.2969C35.6851 29.3906 36 29.0758 36 28.6875V6.67948C36 6.29114 35.6851 5.97635 35.2969 5.97635ZM7.80469 16.8065L1.40625 13.2615V6.22076L7.80469 9.76584V16.8065ZM15.6094 13.2614L9.21094 16.8064V9.7657L15.6094 6.22062V13.2614ZM25.4523 33.1871V34.5938H14.3394V33.1872H25.4523V33.1871ZM17.7865 31.7809V29.3906H22.0053V31.781H17.7865V31.7809ZM34.5938 27.9844H5.20312V25.3124H34.5938V27.9844Z" fill="white"/>
<path d="M20.3296 26.1513C20.1996 26.0205 20.0181 25.9453 19.8325 25.9453C19.6476 25.9453 19.4669 26.0205 19.3355 26.1513C19.2047 26.2828 19.1294 26.4635 19.1294 26.6484C19.1294 26.8341 19.2046 27.0148 19.3355 27.1463C19.4669 27.277 19.6476 27.3523 19.8325 27.3523C20.0182 27.3523 20.1996 27.277 20.3296 27.1463C20.4611 27.0148 20.5356 26.8341 20.5356 26.6484C20.5356 26.4635 20.4611 26.282 20.3296 26.1513Z" fill="white"/>
<path d="M12.6094 2.20291C12.4779 2.07213 12.2972 1.99683 12.1123 1.99683C11.9274 1.99683 11.746 2.07206 11.6145 2.20291C11.4837 2.33362 11.4092 2.5144 11.4092 2.69995C11.4092 2.88494 11.4837 3.06628 11.6145 3.19706C11.746 3.32791 11.9267 3.40308 12.1123 3.40308C12.2972 3.40308 12.4779 3.32791 12.6094 3.19706C12.7401 3.06558 12.8154 2.88494 12.8154 2.69995C12.8154 2.51496 12.7402 2.33362 12.6094 2.20291Z" fill="white"/>
<path d="M32.2726 18.8442H26.5402C26.3442 17.8826 25.4919 17.1567 24.4733 17.1567C23.4547 17.1567 22.6024 17.8826 22.4064 18.8442H18.9609C18.5727 18.8442 18.2578 19.1591 18.2578 19.5474C18.2578 19.9356 18.5727 20.2505 18.9609 20.2505H22.4064C22.6024 21.2122 23.4546 21.938 24.4733 21.938C25.492 21.938 26.3442 21.2122 26.5402 20.2505H32.2726C32.6609 20.2505 32.9758 19.9356 32.9758 19.5474C32.9758 19.1592 32.661 18.8442 32.2726 18.8442ZM25.1764 19.8286C25.1764 20.2163 24.8609 20.5317 24.4732 20.5317C24.0855 20.5317 23.7701 20.2163 23.7701 19.8286V19.2661C23.7701 18.8784 24.0855 18.563 24.4732 18.563C24.8609 18.563 25.1764 18.8784 25.1764 19.2661V19.8286Z" fill="white"/>
<path d="M32.2727 14.9067H31.6012C31.4051 13.9451 30.5529 13.2192 29.5342 13.2192C28.5156 13.2192 27.6633 13.9451 27.4673 14.9067H18.9609C18.5727 14.9067 18.2578 15.2216 18.2578 15.6099C18.2578 15.9981 18.5727 16.313 18.9609 16.313H27.4673C27.6633 17.2747 28.5156 18.0005 29.5342 18.0005C30.5528 18.0005 31.4051 17.2747 31.6011 16.313H32.2726C32.6609 16.313 32.9758 15.9981 32.9758 15.6099C32.9758 15.2216 32.661 14.9067 32.2727 14.9067ZM30.2374 15.8911C30.2374 16.2788 29.922 16.5942 29.5342 16.5942C29.1465 16.5942 28.8311 16.2788 28.8311 15.8911V15.3286C28.8311 14.9409 29.1465 14.6255 29.5342 14.6255C29.922 14.6255 30.2374 14.9409 30.2374 15.3286V15.8911Z" fill="white"/>
<path d="M32.2726 10.9692H26.5402C26.3442 10.0076 25.4919 9.28174 24.4733 9.28174C23.4547 9.28174 22.6024 10.0076 22.4064 10.9692H18.9609C18.5727 10.9692 18.2578 11.2841 18.2578 11.6724C18.2578 12.0606 18.5727 12.3755 18.9609 12.3755H22.4064C22.6024 13.3372 23.4546 14.063 24.4733 14.063C25.492 14.063 26.3442 13.3372 26.5402 12.3755H32.2726C32.6609 12.3755 32.9758 12.0606 32.9758 11.6724C32.9758 11.2841 32.6609 10.9692 32.2726 10.9692ZM25.1764 11.9536C25.1764 12.3413 24.861 12.6567 24.4733 12.6567C24.0856 12.6567 23.7702 12.3413 23.7702 11.9536V11.3911C23.7702 11.0034 24.0856 10.688 24.4733 10.688C24.861 10.688 25.1764 11.0034 25.1764 11.3911V11.9536Z" fill="white"/>
</svg>
