<svg width="50" height="50" viewBox="0 0 50 50" fill="none" xmlns="http://www.w3.org/2000/svg">
<g clip-path="url(#clip0)">
<path d="M48.436 23.4384H28.6448C27.7824 23.4384 27.0824 22.7384 27.0824 21.8759C27.0824 21.0135 27.7824 20.3135 28.6448 20.3135H48.436C49.2985 20.3135 49.9985 21.0135 49.9985 21.8759C49.9985 22.7384 49.2985 23.4384 48.436 23.4384Z" fill="#00579D"/>
<path d="M40.6237 31.2504C40.2236 31.2504 39.8238 31.0982 39.5194 30.7923C38.9091 30.1816 38.9091 29.1921 39.5194 28.5818L46.2277 21.8738L39.5194 15.1655C38.9091 14.5552 38.9091 13.5657 39.5194 12.9553C40.1301 12.3446 41.1196 12.3446 41.7299 12.9553L49.5422 20.7676C50.1525 21.3779 50.1525 22.3674 49.5422 22.9778L41.7299 30.79C41.4236 31.0982 41.0239 31.2504 40.6237 31.2504Z" fill="#00579D"/>
<path d="M16.6663 49.9993C16.2204 49.9993 15.7973 49.9367 15.3747 49.8055L2.83728 45.6286C1.1314 45.0327 0 43.4432 0 41.6663V4.16752C0 1.86962 1.86876 0.000854492 4.16666 0.000854492C4.61221 0.000854492 5.03524 0.0634136 5.45828 0.194635L17.9953 4.3716C19.7015 4.96744 20.8326 6.55697 20.8326 8.3338V45.8326C20.8326 48.1305 18.9642 49.9993 16.6663 49.9993ZM4.16666 3.12576C3.59371 3.12576 3.1249 3.59457 3.1249 4.16752V41.6663C3.1249 42.11 3.42282 42.5223 3.84776 42.6703L16.3264 46.8286C16.416 46.8576 16.5328 46.8744 16.6663 46.8744C17.2392 46.8744 17.7077 46.4056 17.7077 45.8326V8.3338C17.7077 7.89017 17.4097 7.47781 16.9848 7.3298L4.50616 3.17153C4.41652 3.14254 4.29979 3.12576 4.16666 3.12576Z" fill="#00579D"/>
<path d="M31.7698 16.6671C30.9073 16.6671 30.2073 15.9672 30.2073 15.1047V5.72997C30.2073 4.29454 29.0389 3.12576 27.6035 3.12576H4.1667C3.30422 3.12576 2.60425 2.42578 2.60425 1.56331C2.60425 0.70083 3.30422 0.000854492 4.1667 0.000854492H27.6035C30.7639 0.000854492 33.3322 2.56959 33.3322 5.72997V15.1047C33.3322 15.9672 32.6323 16.6671 31.7698 16.6671Z" fill="#00579D"/>
<path d="M27.6034 43.7503H19.2701C18.4076 43.7503 17.7076 43.0503 17.7076 42.1878C17.7076 41.3253 18.4076 40.6254 19.2701 40.6254H27.6034C29.0389 40.6254 30.2073 39.4566 30.2073 38.0211V28.6464C30.2073 27.784 30.9073 27.084 31.7697 27.084C32.6322 27.084 33.3322 27.784 33.3322 28.6464V38.0211C33.3322 41.1815 30.7638 43.7503 27.6034 43.7503Z" fill="#00579D"/>
</g>
<defs>
<clipPath id="clip0">
<rect width="50" height="50" fill="white"/>
</clipPath>
</defs>
</svg>
