<svg width="36" height="36" viewBox="0 0 36 36" fill="none" xmlns="http://www.w3.org/2000/svg">
<path d="M2.40046 14.3629C2.51671 14.3629 2.63431 14.3296 2.73766 14.2601L13.1109 7.28637L15.6849 10.0272C15.8936 10.2496 16.2385 10.2804 16.4843 10.0989L25.2474 3.62761L25.1268 5.13586C25.0994 5.47901 25.3734 5.77478 25.7256 5.77478C26.0355 5.77478 26.2983 5.53935 26.3231 5.22914C26.5674 2.17222 26.5604 2.37441 26.5394 2.26188C26.4976 2.03711 26.328 1.85779 26.11 1.79894C26.0347 1.77835 26.2644 1.80464 23.0861 1.48384C22.7563 1.45052 22.4618 1.68714 22.4281 2.0126C22.3943 2.33806 22.6341 2.62887 22.9637 2.66219L24.36 2.8036L16.1979 8.83111L13.64 6.10743C13.4381 5.8925 13.1075 5.85571 12.8622 6.02051L2.06221 13.2811C1.57501 13.6085 1.81141 14.3629 2.40046 14.3629Z" fill="white"/>
<path d="M35.4 27.7967C35.7313 27.7967 36 27.5315 36 27.2044V2.2951C36 1.02954 34.957 0 33.675 0C32.393 0 31.35 1.02954 31.35 2.2951V30.5026H23.025V10.2169C23.025 9.89033 23.2942 9.62461 23.625 9.62461H27.375C27.7058 9.62461 27.975 9.89033 27.975 10.2169V28.3509C27.975 28.6779 28.2437 28.9431 28.575 28.9431C28.9064 28.9431 29.175 28.6779 29.175 28.3509V10.2169C29.175 9.23718 28.3676 8.44004 27.375 8.44004H23.625C22.6325 8.44004 21.825 9.23718 21.825 10.2169V30.5026H13.275V14.9552C13.275 14.6286 13.5442 14.3629 13.875 14.3629H17.625C17.9558 14.3629 18.225 14.6286 18.225 14.9552V28.0069C18.225 28.334 18.4937 28.5992 18.825 28.5992C19.1564 28.5992 19.425 28.334 19.425 28.0069V14.9552C19.425 13.9755 18.6175 13.1783 17.625 13.1783H13.875C12.8825 13.1783 12.075 13.9755 12.075 14.9552V30.5026H3.375V19.9155C3.375 19.589 3.64418 19.3233 3.975 19.3233H7.725C8.05583 19.3233 8.325 19.589 8.325 19.9155V28.4273C8.325 28.7543 8.59365 29.0195 8.925 29.0195C9.25635 29.0195 9.525 28.7543 9.525 28.4273V19.9155C9.525 18.9358 8.71747 18.1387 7.725 18.1387H3.975C2.98253 18.1387 2.175 18.9358 2.175 19.9155V31.0949C2.175 31.422 2.44365 31.6872 2.775 31.6872H34.2C34.5308 31.6872 34.8 31.9529 34.8 32.2795V33.7602C34.8 34.0868 34.5308 34.3525 34.2 34.3525H1.8C1.46918 34.3525 1.2 34.0868 1.2 33.7602V33.0198C1.2 32.6927 0.93135 32.4275 0.6 32.4275C0.26865 32.4275 0 32.6927 0 33.0198L0 33.7602C0 34.7399 0.807525 35.537 1.8 35.537H34.2C35.1925 35.537 36 34.7399 36 33.7602V32.2795C36 31.2998 35.1925 30.5026 34.2 30.5026H32.55V2.2951C32.55 1.68275 33.0547 1.18457 33.675 1.18457C34.2953 1.18457 34.8 1.68275 34.8 2.2951V27.2044C34.8 27.5315 35.0687 27.7967 35.4 27.7967Z" fill="white"/>
</svg>
