<svg width="25" height="25" viewBox="0 0 25 25" fill="none" xmlns="http://www.w3.org/2000/svg">
<g clip-path="url(#clip0)">
<path d="M24.1121 3.44868C23.5749 3.39971 23.0999 3.79546 23.0509 4.33257L22.9215 5.75195C20.7262 2.30439 16.9155 0 12.5 0C7.74996 0 3.56388 2.71104 1.48585 6.77998C1.24054 7.2603 1.43106 7.84853 1.91139 8.09385C2.39181 8.33916 2.97994 8.14868 3.22525 7.66831C4.9839 4.22476 8.51549 1.95312 12.5 1.95312C16.1317 1.95312 19.4091 3.84429 21.2868 6.80703L19.8943 5.81255C19.4554 5.49912 18.8455 5.60078 18.5321 6.03965C18.2187 6.47856 18.3203 7.08843 18.7592 7.4019L22.9816 10.4176C23.6004 10.8587 24.454 10.4549 24.5217 9.71157L24.9959 4.50991C25.0449 3.97275 24.6492 3.49766 24.1121 3.44868Z" fill="#00579D"/>
<path d="M23.0888 16.9061C22.6084 16.6609 22.0203 16.8514 21.7749 17.3317C20.0163 20.7752 16.4847 23.0469 12.5002 23.0469C8.8685 23.0469 5.59106 21.1557 3.71342 18.193L5.10585 19.1875C5.54477 19.5009 6.15463 19.3992 6.46811 18.9604C6.78154 18.5214 6.67988 17.9116 6.24101 17.5981L2.0186 14.5824C1.40732 14.1457 0.54687 14.5374 0.478511 15.2884L0.0043412 20.4901C-0.0446334 21.0272 0.351119 21.5023 0.888179 21.5513C1.42597 21.6002 1.90043 21.204 1.94936 20.6674L2.07876 19.248C4.27397 22.6956 8.08471 25 12.5002 25C17.2502 25 21.4363 22.289 23.5144 18.22C23.7597 17.7397 23.5691 17.1515 23.0888 16.9061Z" fill="#00579D"/>
</g>
<defs>
<clipPath id="clip0">
<rect width="25" height="25" fill="white"/>
</clipPath>
</defs>
</svg>
